<?xml version="1.0" standalone="no"?><!DOCTYPE svg PUBLIC "-//W3C//DTD SVG 1.1//EN" "http://www.w3.org/Graphics/SVG/1.1/DTD/svg11.dtd"><svg t="1715657901991" class="icon" viewBox="0 0 1024 1024" version="1.1" xmlns="http://www.w3.org/2000/svg" p-id="4293" width="256" height="256" xmlns:xlink="http://www.w3.org/1999/xlink"><path d="M793.173099 0.000427H231.253567A230.826474 230.826474 0 0 0 0.000427 231.253567v561.919532A230.826474 230.826474 0 0 0 231.253567 1023.999573h561.919532A230.826474 230.826474 0 0 0 1023.999573 793.173099V231.253567A230.826474 230.826474 0 0 0 793.173099 0.000427z m28.159977 721.066065c-12.799989 29.866642-37.119969 75.093271-75.519938 85.333263-58.026618 12.373323-188.159843-17.493319-349.866375-180.47985-119.893233-122.879898-177.066519-226.133145-191.99984-305.919745a122.026565 122.026565 0 0 1 77.226603-136.53322h3.41333a29.439975 29.439975 0 0 1 32.853306 11.093325l87.466594 123.73323a38.399968 38.399968 0 0 1 0 42.666631l-30.293308 53.759955a40.106633 40.106633 0 0 0 0 42.666631 584.10618 584.10618 0 0 0 165.973195 165.546529 52.906623 52.906623 0 0 0 50.346625 2.986664l59.733283-28.586643a28.586643 28.586643 0 0 1 26.879978 0l130.559891 80.639933a33.706639 33.706639 0 0 1 13.226656 42.666631z" fill="#00E560" p-id="4294"></path></svg>